<svg xmlns="http://www.w3.org/2000/svg" viewBox="0 0 50.6 50.6"><!--! Font Awesome Free 6.6.0 by @fontawesome - https://fontawesome.com License - https://fontawesome.com/license/free (Icons: CC BY 4.0, Fonts: SIL OFL 1.1, Code: MIT License) Copyright 2024 Fonticons, Inc. --><path d="M0.6,0H5c0.3,0,0.6,0.3,0.6,0.6V50c0,0.3-0.3,0.6-0.6,0.6H0.6C0.3,50.6,0,50.4,0,50V0.6C0,0.3,0.3,0,0.6,0zM11.8,0h4.4c0.3,0,0.6,0.3,0.6,0.6V50c0,0.3-0.3,0.6-0.6,0.6h-4.4c-0.3,0-0.6-0.3-0.6-0.6V0.6C11.3,0.3,11.5,0,11.8,0zM23.1,0h4.4c0.3,0,0.6,0.3,0.6,0.6V50c0,0.3-0.3,0.6-0.6,0.6h-4.4c-0.3,0-0.6-0.3-0.6-0.6V0.6C22.5,0.3,22.8,0,23.1,0zM34.3,0h4.4c0.3,0,0.6,0.3,0.6,0.6V50c0,0.3-0.3,0.6-0.6,0.6h-4.4c-0.3,0-0.6-0.3-0.6-0.6V0.6C33.7,0.3,34,0,34.3,0zM45.6,19.7H50c0.3,0,0.6,0.3,0.6,0.6v10.1c0,0.3-0.3,0.6-0.6,0.6h-4.4c-0.3,0-0.6-0.3-0.6-0.6V20.3C45,20,45.3,19.7,45.6,19.7z"/></svg>